{
	"patcher" : 	{
		"fileversion" : 1,
		"appversion" : 		{
			"major" : 7,
			"minor" : 3,
			"revision" : 5,
			"architecture" : "x86",
			"modernui" : 1
		}
,
		"rect" : [ 154.0, 139.0, 732.0, 287.0 ],
		"bgcolor" : [ 0.484327, 0.566228, 0.413382, 1.0 ],
		"bglocked" : 0,
		"openinpresentation" : 0,
		"default_fontsize" : 12.0,
		"default_fontface" : 0,
		"default_fontname" : "Arial",
		"gridonopen" : 1,
		"gridsize" : [ 15.0, 15.0 ],
		"gridsnaponopen" : 1,
		"objectsnaponopen" : 1,
		"statusbarvisible" : 2,
		"toolbarvisible" : 1,
		"lefttoolbarpinned" : 0,
		"toptoolbarpinned" : 0,
		"righttoolbarpinned" : 0,
		"bottomtoolbarpinned" : 0,
		"toolbars_unpinned_last_save" : 0,
		"tallnewobj" : 0,
		"boxanimatetime" : 200,
		"enablehscroll" : 1,
		"enablevscroll" : 1,
		"devicewidth" : 0.0,
		"description" : "",
		"digest" : "",
		"tags" : "",
		"style" : "",
		"subpatcher_template" : "",
		"boxes" : [ 			{
				"box" : 				{
					"id" : "obj-26",
					"maxclass" : "newobj",
					"numinlets" : 0,
					"numoutlets" : 0,
					"patching_rect" : [ 484.0, 170.5, 140.0, 22.0 ],
					"style" : "",
					"text" : "ids_prox_sb_reader~ 10"
				}

			}
, 			{
				"box" : 				{
					"id" : "obj-27",
					"maxclass" : "newobj",
					"numinlets" : 0,
					"numoutlets" : 0,
					"patching_rect" : [ 484.0, 130.75, 134.0, 22.0 ],
					"style" : "",
					"text" : "ids_prox_sb_reader~ 9"
				}

			}
, 			{
				"box" : 				{
					"id" : "obj-28",
					"maxclass" : "newobj",
					"numinlets" : 0,
					"numoutlets" : 0,
					"patching_rect" : [ 484.0, 91.0, 134.0, 22.0 ],
					"style" : "",
					"text" : "ids_prox_sb_reader~ 8"
				}

			}
, 			{
				"box" : 				{
					"id" : "obj-29",
					"maxclass" : "newobj",
					"numinlets" : 0,
					"numoutlets" : 0,
					"patching_rect" : [ 484.0, 51.25, 134.0, 22.0 ],
					"style" : "",
					"text" : "ids_prox_sb_reader~ 7"
				}

			}
, 			{
				"box" : 				{
					"id" : "obj-30",
					"maxclass" : "newobj",
					"numinlets" : 0,
					"numoutlets" : 0,
					"patching_rect" : [ 484.0, 11.5, 134.0, 22.0 ],
					"style" : "",
					"text" : "ids_prox_sb_reader~ 6"
				}

			}
, 			{
				"box" : 				{
					"id" : "obj-25",
					"maxclass" : "newobj",
					"numinlets" : 0,
					"numoutlets" : 0,
					"patching_rect" : [ 319.0, 170.5, 134.0, 22.0 ],
					"style" : "",
					"text" : "ids_prox_sb_reader~ 5"
				}

			}
, 			{
				"box" : 				{
					"id" : "obj-23",
					"maxclass" : "newobj",
					"numinlets" : 0,
					"numoutlets" : 0,
					"patching_rect" : [ 319.0, 130.75, 134.0, 22.0 ],
					"style" : "",
					"text" : "ids_prox_sb_reader~ 4"
				}

			}
, 			{
				"box" : 				{
					"id" : "obj-22",
					"maxclass" : "newobj",
					"numinlets" : 0,
					"numoutlets" : 0,
					"patching_rect" : [ 319.0, 91.0, 134.0, 22.0 ],
					"style" : "",
					"text" : "ids_prox_sb_reader~ 3"
				}

			}
, 			{
				"box" : 				{
					"id" : "obj-21",
					"maxclass" : "newobj",
					"numinlets" : 0,
					"numoutlets" : 0,
					"patching_rect" : [ 319.0, 51.25, 134.0, 22.0 ],
					"style" : "",
					"text" : "ids_prox_sb_reader~ 2"
				}

			}
, 			{
				"box" : 				{
					"id" : "obj-19",
					"maxclass" : "newobj",
					"numinlets" : 1,
					"numoutlets" : 0,
					"patching_rect" : [ 173.0, 88.0, 95.0, 22.0 ],
					"style" : "",
					"text" : "s filenameNoEx"
				}

			}
, 			{
				"box" : 				{
					"id" : "obj-17",
					"maxclass" : "newobj",
					"numinlets" : 1,
					"numoutlets" : 0,
					"patching_rect" : [ 32.0, 170.5, 91.0, 22.0 ],
					"style" : "",
					"text" : "s sbFolderPath"
				}

			}
, 			{
				"box" : 				{
					"id" : "obj-7",
					"maxclass" : "newobj",
					"numinlets" : 0,
					"numoutlets" : 0,
					"patching_rect" : [ 319.0, 11.5, 134.0, 22.0 ],
					"style" : "",
					"text" : "ids_prox_sb_reader~ 1"
				}

			}
, 			{
				"box" : 				{
					"id" : "obj-16",
					"maxclass" : "newobj",
					"numinlets" : 2,
					"numoutlets" : 3,
					"outlettype" : [ "int", "", "int" ],
					"patching_rect" : [ 32.0, 66.0, 103.0, 22.0 ],
					"style" : "",
					"text" : "file_splitFilename"
				}

			}
, 			{
				"box" : 				{
					"comment" : "complete original wavefile path",
					"id" : "obj-6",
					"index" : 0,
					"maxclass" : "inlet",
					"numinlets" : 0,
					"numoutlets" : 1,
					"outlettype" : [ "" ],
					"patching_rect" : [ 32.0, 7.5, 30.0, 30.0 ],
					"style" : ""
				}

			}
, 			{
				"box" : 				{
					"id" : "obj-1",
					"maxclass" : "newobj",
					"numinlets" : 1,
					"numoutlets" : 1,
					"outlettype" : [ "" ],
					"patching_rect" : [ 32.0, 114.0, 131.0, 22.0 ],
					"style" : "",
					"text" : "ids_prox_useful_paths"
				}

			}
 ],
		"lines" : [ 			{
				"patchline" : 				{
					"destination" : [ "obj-17", 0 ],
					"source" : [ "obj-1", 0 ]
				}

			}
, 			{
				"patchline" : 				{
					"destination" : [ "obj-1", 0 ],
					"source" : [ "obj-16", 0 ]
				}

			}
, 			{
				"patchline" : 				{
					"destination" : [ "obj-19", 0 ],
					"source" : [ "obj-16", 2 ]
				}

			}
, 			{
				"patchline" : 				{
					"destination" : [ "obj-16", 0 ],
					"source" : [ "obj-6", 0 ]
				}

			}
 ],
		"dependency_cache" : [ 			{
				"name" : "ids_prox_useful_paths.maxpat",
				"bootpath" : "~/Desktop/Max7_work/abs",
				"patcherrelativepath" : ".",
				"type" : "JSON",
				"implicit" : 1
			}
, 			{
				"name" : "path_parentPath.maxpat",
				"bootpath" : "~/Desktop/Max7_work/abs",
				"patcherrelativepath" : ".",
				"type" : "JSON",
				"implicit" : 1
			}
, 			{
				"name" : "file_splitFilename.maxpat",
				"bootpath" : "~/Desktop/Max7_work/abs",
				"patcherrelativepath" : ".",
				"type" : "JSON",
				"implicit" : 1
			}
, 			{
				"name" : "ids_prox_sb_reader~.maxpat",
				"bootpath" : "~/Desktop/Max7_work/abs",
				"patcherrelativepath" : ".",
				"type" : "JSON",
				"implicit" : 1
			}
, 			{
				"name" : "ids_Leipp_sb_wavfile_path.maxpat",
				"bootpath" : "~/Desktop/Max7_work/abs",
				"patcherrelativepath" : ".",
				"type" : "JSON",
				"implicit" : 1
			}
, 			{
				"name" : "strcut.mxo",
				"type" : "iLaX"
			}
, 			{
				"name" : "strrchr.mxo",
				"type" : "iLaX"
			}
, 			{
				"name" : "strcat.mxo",
				"type" : "iLaX"
			}
 ],
		"autosave" : 0
	}

}
